<?xml version="1.0" standalone="no"?>
<!DOCTYPE svg PUBLIC "-//W3C//DTD SVG 20010904//EN"
 "http://www.w3.org/TR/2001/REC-SVG-20010904/DTD/svg10.dtd">
<svg version="1.0" xmlns="http://www.w3.org/2000/svg"
 width="200.000000pt" height="200.000000pt" viewBox="0 0 200.000000 200.000000"
 preserveAspectRatio="xMidYMid meet">

<g transform="translate(0.000000,200.000000) scale(0.100000,-0.100000)"
fill="#000000" stroke="none">
<path d="M630 1384 c0 -8 5 -12 10 -9 6 4 8 11 5 16 -9 14 -15 11 -15 -7z"/>
<path d="M542 1273 l-2 -51 -45 0 c-25 1 -45 6 -45 12 0 6 -4 5 -9 -3 -6 -9
-25 -12 -65 -10 -55 4 -56 3 -56 -23 0 -14 -6 -29 -12 -31 -10 -4 -10 -6 0 -6
9 -1 12 -48 12 -202 0 -165 3 -203 15 -215 8 -9 15 -11 15 -5 0 6 9 11 21 11
18 0 20 -5 18 -45 -2 -24 0 -47 4 -51 4 -4 7 16 7 44 l0 52 73 -1 c42 -1 75
-6 79 -13 5 -7 8 -5 8 7 0 10 8 17 19 17 23 0 68 51 77 86 4 14 4 43 1 64 -5
39 -5 39 37 49 l41 9 -47 1 c-27 1 -65 10 -87 22 l-40 21 29 24 c38 32 47 80
25 127 -9 19 -27 39 -40 45 -20 9 -25 20 -28 64 l-3 53 -2 -52z m-28 -92 c29
-1 29 -1 23 -51 -4 -29 -2 -50 3 -50 6 0 10 21 10 48 1 43 2 46 15 28 17 -23
20 -69 5 -96 -14 -26 -63 -40 -136 -40 l-64 0 0 79 c0 88 0 88 75 84 22 -1 53
-2 69 -2z m71 -226 c26 -25 32 -45 14 -45 -7 0 -9 -13 -4 -38 5 -31 2 -41 -14
-57 -16 -14 -21 -15 -21 -4 -1 11 -3 10 -10 -2 -7 -13 -26 -17 -81 -17 l-72 0
7 59 c3 36 2 59 -4 59 -6 0 -10 -27 -10 -60 0 -33 -4 -60 -10 -60 -6 0 -10 38
-10 95 l0 95 95 0 c88 0 98 -2 120 -25z"/>
<path d="M380 1101 c0 -12 5 -21 10 -21 6 0 10 6 10 14 0 8 -4 18 -10 21 -5 3
-10 -3 -10 -14z"/>
<path d="M435 1107 c-4 -10 -5 -21 -1 -24 10 -10 18 4 13 24 -4 17 -4 17 -12
0z"/>
<path d="M480 1100 c0 -11 5 -20 10 -20 6 0 10 9 10 20 0 11 -4 20 -10 20 -5
0 -10 -9 -10 -20z"/>
<path d="M440 890 c0 -11 5 -20 10 -20 6 0 10 9 10 20 0 11 -4 20 -10 20 -5 0
-10 -9 -10 -20z"/>
<path d="M490 890 c0 -11 5 -20 10 -20 6 0 10 9 10 20 0 11 -4 20 -10 20 -5 0
-10 -9 -10 -20z"/>
<path d="M540 890 c0 -11 5 -20 10 -20 6 0 10 9 10 20 0 11 -4 20 -10 20 -5 0
-10 -9 -10 -20z"/>
<path d="M430 1270 c0 -5 5 -10 10 -10 6 0 10 5 10 10 0 6 -4 10 -10 10 -5 0
-10 -4 -10 -10z"/>
<path d="M601 1236 c7 -7 129 -10 136 -3 3 4 -27 7 -67 7 -40 0 -71 -2 -69 -4z"/>
<path d="M250 1159 c0 -5 5 -7 10 -4 6 3 10 8 10 11 0 2 -4 4 -10 4 -5 0 -10
-5 -10 -11z"/>
<path d="M140 1132 c0 -4 34 -6 75 -4 l76 4 -7 -26 c-4 -16 -2 -26 5 -26 6 0
11 14 11 30 l0 30 -80 0 c-44 0 -80 -3 -80 -8z"/>
<path d="M14 1055 l1 -70 127 -3 c71 -1 128 1 128 6 0 4 -56 6 -125 4 l-124
-4 -4 68 -3 69 0 -70z"/>
<path d="M70 1040 c0 -5 5 -10 10 -10 6 0 10 5 10 10 0 6 -4 10 -10 10 -5 0
-10 -4 -10 -10z"/>
<path d="M225 1040 c3 -5 15 -10 26 -10 10 0 19 5 19 10 0 6 -12 10 -26 10
-14 0 -23 -4 -19 -10z"/>
<path d="M1770 1030 c0 -17 7 -20 45 -20 25 0 45 -3 45 -6 0 -4 -22 -32 -50
-64 -27 -32 -50 -67 -50 -79 0 -20 5 -21 85 -21 78 0 85 2 85 20 0 17 -7 20
-50 20 -27 0 -50 3 -50 8 0 4 22 34 50 67 71 86 69 95 -30 95 -73 0 -80 -2
-80 -20z"/>
<path d="M658 1022 c-10 -2 -18 -8 -18 -13 0 -10 23 -10 60 0 l25 7 -25 5
c-14 3 -33 3 -42 1z"/>
<path d="M770 1020 c-24 -8 -23 -8 8 -9 17 -1 32 4 32 9 0 11 -5 11 -40 0z"/>
<path d="M230 940 c0 -5 9 -10 20 -10 11 0 20 5 20 10 0 6 -9 10 -20 10 -11 0
-20 -4 -20 -10z"/>
<path d="M89 885 c-5 -60 -4 -73 7 -63 3 3 4 32 2 64 l-3 59 -6 -60z"/>
<path d="M290 833 c0 -42 2 -74 4 -72 9 10 14 149 5 149 -5 0 -9 -34 -9 -77z"/>
<path d="M760 850 c0 -5 5 -10 10 -10 6 0 10 5 10 10 0 6 -4 10 -10 10 -5 0
-10 -4 -10 -10z"/>
<path d="M485 680 c-3 -5 -1 -10 4 -10 6 0 11 5 11 10 0 6 -2 10 -4 10 -3 0
-8 -4 -11 -10z"/>
<path d="M577 673 c18 -2 50 -2 70 0 21 2 7 4 -32 4 -38 0 -55 -2 -38 -4z"/>
<path d="M250 630 c0 -5 5 -10 11 -10 5 0 7 5 4 10 -3 6 -8 10 -11 10 -2 0 -4
-4 -4 -10z"/>
<path d="M344 603 c7 -7 98 -5 105 3 2 2 -22 4 -54 4 -32 0 -55 -3 -51 -7z"/>
</g>
</svg>
